<svg style=" background:#FFEBA4 ;" width="280" height="280" viewBox="0 0 400.0 400.0"
     preserveAspectRatio="xMidYMax meet" fill="none" xmlns="http://www.w3.org/2000/svg">
    <g transform="translate(100, 65)">
        <g>

            <g clip-path="url(#clip0)">
                <title>face - base</title>
                <path d="M154 319.5C139.6 299.5 128.333 260.834 127 241.5L58.5 212L30 319.5H154Z" fill="#ffcebc"
                      stroke="black" stroke-width="4"></path>
                <mask id="mask0" style="mask-type: alpha" maskUnits="userSpaceOnUse" x="30" y="212" width="124"
                      height="118">
                    <path d="M154 329.5C139.6 309.5 128.333 260.834 127 241.5L58.5 212L30 329.5H154Z"
                          fill="#ffcebc"></path>
                </mask>
                <g mask="url(#mask0)">
                    <g style="mix-blend-mode: multiply">
                        <ellipse cx="124" cy="210" rx="59" ry="54" fill="black"></ellipse>
                    </g>
                </g>
                <mask id="path-4-inside-1" fill="white">
                    <path fill-rule="evenodd" clip-rule="evenodd"
                          d="M183.886 150.917C183.859 150.801 183.831 150.685 183.803 150.569C183.776 150.454 183.748 150.338 183.719 150.222L167.323 81.7855C167.306 81.7177 167.29 81.6499 167.274 81.5821C167.258 81.5142 167.242 81.4465 167.225 81.3787L167.152 81.0752L167.151 81.0755C156.933 39.6308 115.156 14.1472 73.5821 24.1081C32.0078 34.0689 6.31547 75.7174 15.9883 117.293L15.9863 117.293L32.9776 188.211L32.9916 188.208C43.5944 229.112 85.0616 254.149 126.329 244.261C167.597 234.374 193.216 193.264 184.131 151.996L184.144 151.993L183.886 150.917Z"></path>
                </mask>
                <path fill-rule="evenodd" clip-rule="evenodd"
                      d="M183.886 150.917C183.859 150.801 183.831 150.685 183.803 150.569C183.776 150.454 183.748 150.338 183.719 150.222L167.323 81.7855C167.306 81.7177 167.29 81.6499 167.274 81.5821C167.258 81.5142 167.242 81.4465 167.225 81.3787L167.152 81.0752L167.151 81.0755C156.933 39.6308 115.156 14.1472 73.5821 24.1081C32.0078 34.0689 6.31547 75.7174 15.9883 117.293L15.9863 117.293L32.9776 188.211L32.9916 188.208C43.5944 229.112 85.0616 254.149 126.329 244.261C167.597 234.374 193.216 193.264 184.131 151.996L184.144 151.993L183.886 150.917Z"
                      fill="#ffcebc"></path>
                <path d="M183.886 150.917L179.992 151.831L179.994 151.84L179.996 151.849L183.886 150.917ZM183.719 150.222L179.83 151.154L179.832 151.163L179.834 151.172L183.719 150.222ZM167.323 81.7855L163.43 82.7076L163.433 82.7175L167.323 81.7855ZM167.274 81.5821L163.384 82.5141L163.384 82.5142L167.274 81.5821ZM167.225 81.3787L163.335 82.3108L163.338 82.321L167.225 81.3787ZM167.152 81.0752L171.042 80.1432L170.111 76.255L166.222 77.1849L167.152 81.0752ZM167.151 81.0755L163.267 82.0331L164.218 85.8897L168.081 84.9659L167.151 81.0755ZM73.5821 24.1081L72.6501 20.2182L73.5821 24.1081ZM15.9883 117.293L16.9223 121.182L20.7842 120.255L19.8842 116.386L15.9883 117.293ZM15.9863 117.293L15.0523 113.404L11.1649 114.337L12.0964 118.225L15.9863 117.293ZM32.9776 188.211L29.0877 189.143L30.0201 193.035L33.9113 192.101L32.9776 188.211ZM32.9916 188.208L36.8636 187.204L35.8779 183.401L32.058 184.318L32.9916 188.208ZM126.329 244.261L125.397 240.371H125.397L126.329 244.261ZM184.131 151.996L183.2 148.106L179.381 149.021L180.225 152.856L184.131 151.996ZM184.144 151.993L185.075 155.883L188.966 154.951L188.034 151.061L184.144 151.993ZM187.78 150.002C187.751 149.881 187.722 149.759 187.693 149.637L179.914 151.502C179.94 151.611 179.966 151.721 179.992 151.831L187.78 150.002ZM187.693 149.637C187.664 149.516 187.635 149.395 187.605 149.273L179.834 151.172C179.861 151.281 179.887 151.391 179.914 151.502L187.693 149.637ZM163.433 82.7175L179.83 151.154L187.609 149.29L171.212 80.8535L163.433 82.7175ZM171.215 80.8634C171.198 80.7928 171.181 80.7216 171.164 80.65L163.384 82.5142C163.4 82.5781 163.415 82.6425 163.43 82.7076L171.215 80.8634ZM171.164 80.65C171.147 80.579 171.13 80.5078 171.113 80.4364L163.338 82.321C163.353 82.3851 163.369 82.4494 163.384 82.5141L171.164 80.65ZM163.262 82.0072L163.335 82.3108L171.115 80.4467L171.042 80.1432L163.262 82.0072ZM168.081 84.9659L168.083 84.9655L166.222 77.1849L166.221 77.1852L168.081 84.9659ZM171.035 80.118C160.291 36.5398 116.364 9.74466 72.6501 20.2182L74.514 27.998C113.949 18.5498 153.575 42.7219 163.267 82.0331L171.035 80.118ZM72.6501 20.2182C28.936 30.6917 1.92157 74.4836 12.0923 118.199L19.8842 116.386C10.7094 76.9513 35.0796 37.4461 74.514 27.998L72.6501 20.2182ZM16.9204 121.183L16.9223 121.182L15.0542 113.403L15.0523 113.404L16.9204 121.183ZM36.8676 187.279L19.8763 116.361L12.0964 118.225L29.0877 189.143L36.8676 187.279ZM32.058 184.318L32.044 184.322L33.9113 192.101L33.9252 192.097L32.058 184.318ZM29.1195 189.211C40.2685 232.223 83.8693 258.548 127.261 248.151L125.397 240.371C86.2539 249.75 46.9204 226.002 36.8636 187.204L29.1195 189.211ZM127.261 248.151C170.653 237.755 197.591 194.53 188.038 151.136L180.225 152.856C188.842 191.999 164.541 230.993 125.397 240.371L127.261 248.151ZM183.212 148.103L183.2 148.106L185.063 155.886L185.075 155.883L183.212 148.103ZM179.996 151.849L180.254 152.925L188.034 151.061L187.776 149.985L179.996 151.849Z"
                      fill="black" mask="url(#path-4-inside-1)"></path>
            </g>
            <defs>
                <clipPath id="clip0">
                    <rect width="200" height="320" fill="white"></rect>
                </clipPath>
            </defs>
        </g>
        <g>

            <g transform="translate(62, 97)">
                <title>eyes - round</title>
                <ellipse cx="16.1171" cy="28.9268" rx="9" ry="10" transform="rotate(-6.77646 16.1171 28.9268)"
                         fill="black"></ellipse>
                <ellipse cx="80.1486" cy="18.9231" rx="9" ry="10" transform="rotate(-6.27568 80.1486 18.9231)"
                         fill="black"></ellipse>
            </g>
        </g>
        <g>

            <g transform="translate(98, 123)">
                <title>nose - round</title>
                <path d="M12.307 12.3397C17.753 11.0993 26.6843 12.9603 24.7238 22.8833C22.9813 31.7023 13.6141 32.1857 11 29.7048"
                      stroke="black" stroke-width="4"></path>
            </g>
        </g>
        <g>

            <g transform="translate(26, 80)">
                <title>eyebrows - down</title>
                <path d="M27 26.5C33.1667 29 48.1 29.5 58.5 11.5" stroke="black" stroke-width="4"
                      stroke-linecap="round"></path>
                <path d="M94 4C99.1667 9.33333 112.1 16.8 122.5 4" stroke="black" stroke-width="4"
                      stroke-linecap="round"></path>
            </g>
        </g>
        <g>

            <g transform="translate(-46, -13)">
                <title>tops - pixie</title>
                <path d="M121.837 88.8195C121.051 87.0776 121.051 87.0779 121.05 87.0783L121.047 87.0794L121.04 87.0828L121.015 87.0942C120.994 87.1038 120.964 87.1177 120.925 87.1357C120.89 87.1518 120.848 87.1714 120.799 87.1943C120.74 87.2223 120.67 87.2553 120.591 87.2932C120.301 87.4313 119.882 87.6353 119.352 87.9045C118.291 88.4426 116.782 89.2418 114.972 90.2948C111.356 92.3984 106.515 95.527 101.628 99.626C91.9116 107.776 81.7052 120.03 81.0904 135.926C80.8259 142.765 79.9706 175.806 80.1619 188.433C80.323 199.065 85.8253 210.481 93.4581 221.008C100.109 230.18 108.508 238.857 116.832 246.008C79.0664 247.501 50.4555 242.546 31.1209 237.121C21.038 234.292 13.4742 231.334 8.44733 229.094C6.46024 228.208 4.86951 227.434 3.67627 226.825C12.7707 220.141 20.3578 208.682 25.3638 191.675C30.8537 173.024 33.288 147.554 31.1521 113.963C29.2166 83.5247 44.0087 57.8092 66.3601 39.629C88.7347 21.4301 118.55 10.9109 146.238 10.9109C161.221 10.9109 173.377 13.8448 183.177 20.9616C192.98 28.081 200.668 39.5619 206.363 57.1322L206.758 58.3516L208.036 58.4485C220.412 59.3865 229.115 64.4881 235.532 72.6621C242.017 80.924 246.24 92.4216 249.336 106.232C251.376 115.332 249.389 124.311 247.001 134.651L246.89 135.133C244.553 145.25 241.952 156.505 243.096 169.666C244.126 181.51 248.853 193.135 252.782 202.074C253.287 203.222 253.776 204.321 254.242 205.368C255.617 208.455 256.793 211.096 257.586 213.253C258.118 214.698 258.425 215.79 258.523 216.566C258.573 216.963 258.555 217.168 258.542 217.254C258.097 217.665 257.273 218.12 255.957 218.522C254.588 218.94 252.864 219.248 250.882 219.442C246.921 219.828 242.138 219.738 237.544 219.296C232.942 218.853 228.638 218.067 225.623 217.108C224.092 216.622 223.033 216.134 222.436 215.711C222.345 215.646 222.275 215.591 222.222 215.546C222.594 214.259 223.132 212.723 223.753 210.949C226.947 201.824 232.348 186.398 228.855 166.08C226.766 153.924 221.189 132.457 216.162 114.11C213.643 104.919 211.255 96.4828 209.496 90.3444C208.616 87.275 207.894 84.7798 207.391 83.0515C207.14 82.1874 206.944 81.515 206.81 81.0584L206.658 80.5384L206.619 80.4055L206.609 80.3717L206.607 80.3632L206.606 80.361C206.606 80.3605 206.606 80.3602 204.772 80.8993L206.606 80.3602L205.677 77.2011L203.395 79.5745L203.395 79.5751L203.391 79.579L203.372 79.5991C203.353 79.6178 203.325 79.6471 203.286 79.6867C203.208 79.7659 203.088 79.8861 202.928 80.0445C202.607 80.3612 202.123 80.8304 201.482 81.4293C200.199 82.6271 198.286 84.343 195.784 86.3943C190.779 90.4982 183.428 95.9376 174.067 101.257C156.25 111.382 131.216 121.037 101.246 120.29C110.86 111.359 116.392 104.018 119.562 98.7007C121.329 95.736 122.36 93.4028 122.955 91.7777C123.252 90.9654 123.44 90.3309 123.555 89.8839C123.613 89.6605 123.653 89.484 123.68 89.3558C123.693 89.2917 123.703 89.2397 123.711 89.1998C123.714 89.1799 123.717 89.1631 123.72 89.1493L123.723 89.1309L123.724 89.1235L123.724 89.1202C123.725 89.1187 123.725 89.1172 121.837 88.8195ZM121.837 88.8195L121.051 87.0776L124.276 85.6229L123.725 89.1172L121.837 88.8195ZM222.068 215.388C222.071 215.388 222.082 215.402 222.097 215.428C222.073 215.401 222.066 215.388 222.068 215.388Z"
                      fill="#6BD9E9" stroke="black" stroke-width="3.82184"></path>
                <path d="M207 58C207.5 62.5 206.7 71.5 205.5 77.5" stroke="black" stroke-width="4"></path>
            </g>

        </g>
        <g>

            <g transform="translate(14, 87)">
                <title>glasses - square</title>
                <path d="M36.5 42.5L2 49.125" stroke="black" stroke-width="4" stroke-linecap="round"></path>
                <path d="M32.4878 25.9393C31.618 22.4804 33.9396 19.0308 37.4716 18.5345L76.1882 13.0932C79.4696 12.632 82.5036 14.9183 82.9648 18.1998L88.5317 57.8105C88.9929 61.0919 86.7066 64.126 83.4252 64.5871L48.9526 69.4319C45.9161 69.8587 43.0465 67.9273 42.2987 64.9536L32.4878 25.9393Z"
                      stroke="black" stroke-width="4"></path>
                <path d="M154.751 8.96388C154.634 5.39915 151.451 2.7232 147.919 3.21958L109.203 8.66085C105.921 9.12202 103.635 12.156 104.096 15.4375L109.663 55.0482C110.124 58.3297 113.158 60.616 116.44 60.1548L150.912 55.31C153.949 54.8832 156.175 52.2357 156.074 49.1711L154.751 8.96388Z"
                      stroke="black" stroke-width="4"></path>
                <path d="M85.5 37.125L107.5 33.625" stroke="black" stroke-width="4"></path>
            </g>
        </g>
        <g>

            <g transform="translate(34, 101)">
                <title>beard - scruff</title>

                <path d="M31 109C31 109.552 30.5523 110 30 110C29.4477 110 29 109.552 29 109C29 108.448 29.4477 108 30 108C30.5523 108 31 108.448 31 109Z"
                      fill="black"></path>
                <path d="M83 116C83 116.552 82.5523 117 82 117C81.4477 117 81 116.552 81 116C81 115.448 81.4477 115 82 115C82.5523 115 83 115.448 83 116Z"
                      fill="black"></path>
                <path d="M79 123C79 123.552 78.5523 124 78 124C77.4477 124 77 123.552 77 123C77 122.448 77.4477 122 78 122C78.5523 122 79 122.448 79 123Z"
                      fill="black"></path>
                <path d="M99 121C99 121.552 98.5523 122 98 122C97.4477 122 97 121.552 97 121C97 120.448 97.4477 120 98 120C98.5523 120 99 120.448 99 121Z"
                      fill="black"></path>
                <path d="M100 111C100 111.552 99.5523 112 99 112C98.4477 112 98 111.552 98 111C98 110.448 98.4477 110 99 110C99.5523 110 100 110.448 100 111Z"
                      fill="black"></path>
                <path d="M120 116C120 116.552 119.552 117 119 117C118.448 117 118 116.552 118 116C118 115.448 118.448 115 119 115C119.552 115 120 115.448 120 116Z"
                      fill="black"></path>
                <path d="M130 102C130 102.552 129.552 103 129 103C128.448 103 128 102.552 128 102C128 101.448 128.448 101 129 101C129.552 101 130 101.448 130 102Z"
                      fill="black"></path>
                <path d="M21 88C21 88.5523 20.5523 89 20 89C19.4477 89 19 88.5523 19 88C19 87.4477 19.4477 87 20 87C20.5523 87 21 87.4477 21 88Z"
                      fill="black"></path>
                <path d="M54 104C54 104.552 53.5523 105 53 105C52.4477 105 52 104.552 52 104C52 103.448 52.4477 103 53 103C53.5523 103 54 103.448 54 104Z"
                      fill="black"></path>
                <path d="M51 124C51 124.552 50.5523 125 50 125C49.4477 125 49 124.552 49 124C49 123.448 49.4477 123 50 123C50.5523 123 51 123.448 51 124Z"
                      fill="black"></path>
                <path d="M69 128C69 128.552 68.5523 129 68 129C67.4477 129 67 128.552 67 128C67 127.448 67.4477 127 68 127C68.5523 127 69 127.448 69 128Z"
                      fill="black"></path>
                <path d="M103 102C103 102.552 102.552 103 102 103C101.448 103 101 102.552 101 102C101 101.448 101.448 101 102 101C102.552 101 103 101.448 103 102Z"
                      fill="black"></path>
                <path d="M117 106C117 106.552 116.552 107 116 107C115.448 107 115 106.552 115 106C115 105.448 115.448 105 116 105C116.552 105 117 105.448 117 106Z"
                      fill="black"></path>
                <path d="M109 123C109 123.552 108.552 124 108 124C107.448 124 107 123.552 107 123C107 122.448 107.448 122 108 122C108.552 122 109 122.448 109 123Z"
                      fill="black"></path>
                <path d="M123 92C123 92.5523 122.552 93 122 93C121.448 93 121 92.5523 121 92C121 91.4477 121.448 91 122 91C122.552 91 123 91.4477 123 92Z"
                      fill="black"></path>
                <path d="M30 94C30 94.5523 29.5523 95 29 95C28.4477 95 28 94.5523 28 94C28 93.4477 28.4477 93 29 93C29.5523 93 30 93.4477 30 94Z"
                      fill="black"></path>
                <path d="M54 94C54 94.5523 53.5523 95 53 95C52.4477 95 52 94.5523 52 94C52 93.4477 52.4477 93 53 93C53.5523 93 54 93.4477 54 94Z"
                      fill="black"></path>
                <path d="M54 76C54 76.5523 53.5523 77 53 77C52.4477 77 52 76.5523 52 76C52 75.4477 52.4477 75 53 75C53.5523 75 54 75.4477 54 76Z"
                      fill="black"></path>
                <path d="M58 130C58 130.552 57.5523 131 57 131C56.4477 131 56 130.552 56 130C56 129.448 56.4477 129 57 129C57.5523 129 58 129.448 58 130Z"
                      fill="black"></path>
                <path d="M85 130C85 130.552 84.5523 131 84 131C83.4477 131 83 130.552 83 130C83 129.448 83.4477 129 84 129C84.5523 129 85 129.448 85 130Z"
                      fill="black"></path>
                <path d="M96 130C96 130.552 95.5523 131 95 131C94.4477 131 94 130.552 94 130C94 129.448 94.4477 129 95 129C95.5523 129 96 129.448 96 130Z"
                      fill="black"></path>
                <path d="M113 94C113 94.5523 112.552 95 112 95C111.448 95 111 94.5523 111 94C111 93.4477 111.448 93 112 93C112.552 93 113 93.4477 113 94Z"
                      fill="black"></path>
                <path d="M113 76C113 76.5523 112.552 77 112 77C111.448 77 111 76.5523 111 76C111 75.4477 111.448 75 112 75C112.552 75 113 75.4477 113 76Z"
                      fill="black"></path>
                <path d="M133 89C133 89.5523 132.552 90 132 90C131.448 90 131 89.5523 131 89C131 88.4477 131.448 88 132 88C132.552 88 133 88.4477 133 89Z"
                      fill="black"></path>
                <path d="M33 81C33 81.5523 32.5523 82 32 82C31.4477 82 31 81.5523 31 81C31 80.4477 31.4477 80 32 80C32.5523 80 33 80.4477 33 81Z"
                      fill="black"></path>
                <path d="M43 116C43 116.552 42.5523 117 42 117C41.4477 117 41 116.552 41 116C41 115.448 41.4477 115 42 115C42.5523 115 43 115.448 43 116Z"
                      fill="black"></path>
                <path d="M39 123C39 123.552 38.5523 124 38 124C37.4477 124 37 123.552 37 123C37 122.448 37.4477 122 38 122C38.5523 122 39 122.448 39 123Z"
                      fill="black"></path>
                <path d="M79 103C79 103.552 78.5523 104 78 104C77.4477 104 77 103.552 77 103C77 102.448 77.4477 102 78 102C78.5523 102 79 102.448 79 103Z"
                      fill="black"></path>
                <path d="M91 105C91 105.552 90.5523 106 90 106C89.4477 106 89 105.552 89 105C89 104.448 89.4477 104 90 104C90.5523 104 91 104.448 91 105Z"
                      fill="black"></path>
                <path d="M77 135C77 135.552 76.5523 136 76 136C75.4477 136 75 135.552 75 135C75 134.448 75.4477 134 76 134C76.5523 134 77 134.448 77 135Z"
                      fill="black"></path>
                <path d="M100 84C100 84.5523 99.5523 85 99 85C98.4477 85 98 84.5523 98 84C98 83.4477 98.4477 83 99 83C99.5523 83 100 83.4477 100 84Z"
                      fill="black"></path>
                <path d="M100 66C100 66.5523 99.5523 67 99 67C98.4477 67 98 66.5523 98 66C98 65.4477 98.4477 65 99 65C99.5523 65 100 65.4477 100 66Z"
                      fill="black"></path>
                <path d="M124 81C124 81.5523 123.552 82 123 82C122.448 82 122 81.5523 122 81C122 80.4477 122.448 80 123 80C123.552 80 124 80.4477 124 81Z"
                      fill="black"></path>
                <path d="M131 71C131 71.5523 130.552 72 130 72C129.448 72 129 71.5523 129 71C129 70.4477 129.448 70 130 70C130.552 70 131 70.4477 131 71Z"
                      fill="black"></path>
                <path d="M42 90C42 90.5523 41.5523 91 41 91C40.4477 91 40 90.5523 40 90C40 89.4477 40.4477 89 41 89C41.5523 89 42 89.4477 42 90Z"
                      fill="black"></path>
                <path d="M42 101C42 101.552 41.5523 102 41 102C40.4477 102 40 101.552 40 101C40 100.448 40.4477 100 41 100C41.5523 100 42 100.448 42 101Z"
                      fill="black"></path>
                <path d="M63 86C63 86.5523 62.5523 87 62 87C61.4477 87 61 86.5523 61 86C61 85.4477 61.4477 85 62 85C62.5523 85 63 85.4477 63 86Z"
                      fill="black"></path>
                <path d="M63 68C63 68.5523 62.5523 69 62 69C61.4477 69 61 68.5523 61 68C61 67.4477 61.4477 67 62 67C62.5523 67 63 67.4477 63 68Z"
                      fill="black"></path>
                <path d="M75 82C75 82.5523 74.5523 83 74 83C73.4477 83 73 82.5523 73 82C73 81.4477 73.4477 81 74 81C74.5523 81 75 81.4477 75 82Z"
                      fill="black"></path>
                <path d="M87 76C87 76.5523 86.5523 77 86 77C85.4477 77 85 76.5523 85 76C85 75.4477 85.4477 75 86 75C86.5523 75 87 75.4477 87 76Z"
                      fill="black"></path>
                <path d="M100 76C100 76.5523 99.5523 77 99 77C98.4477 77 98 76.5523 98 76C98 75.4477 98.4477 75 99 75C99.5523 75 100 75.4477 100 76Z"
                      fill="black"></path>
                <path d="M113 76C113 76.5523 112.552 77 112 77C111.448 77 111 76.5523 111 76C111 75.4477 111.448 75 112 75C112.552 75 113 75.4477 113 76Z"
                      fill="black"></path>
                <path d="M139 76C139 76.5523 138.552 77 138 77C137.448 77 137 76.5523 137 76C137 75.4477 137.448 75 138 75C138.552 75 139 75.4477 139 76Z"
                      fill="black"></path>
                <path d="M61 116C61 116.552 60.5523 117 60 117C59.4477 117 59 116.552 59 116C59 115.448 59.4477 115 60 115C60.5523 115 61 115.448 61 116Z"
                      fill="black"></path>
                <path d="M72 110C72 110.552 71.5523 111 71 111C70.4477 111 70 110.552 70 110C70 109.448 70.4477 109 71 109C71.5523 109 72 109.448 72 110Z"
                      fill="black"></path>
                <path d="M68 102C68 102.552 67.5523 103 67 103C66.4477 103 66 102.552 66 102C66 101.448 66.4477 101 67 101C67.5523 101 68 101.448 68 102Z"
                      fill="black"></path>
                <path d="M92 93C92 93.5523 91.5523 94 91 94C90.4477 94 90 93.5523 90 93C90 92.4477 90.4477 92 91 92C91.5523 92 92 92.4477 92 93Z"
                      fill="black"></path>
                <path d="M43 75C43 75.5523 42.5523 76 42 76C41.4477 76 41 75.5523 41 75C41 74.4477 41.4477 74 42 74C42.5523 74 43 74.4477 43 75Z"
                      fill="black"></path>
                <path d="M80 91C80 91.5523 79.5523 92 79 92C78.4477 92 78 91.5523 78 91C78 90.4477 78.4477 90 79 90C79.5523 90 80 90.4477 80 91Z"
                      fill="black"></path>
                <path d="M80 73C80 73.5523 79.5523 74 79 74C78.4477 74 78 73.5523 78 73C78 72.4477 78.4477 72 79 72C79.5523 72 80 72.4477 80 73Z"
                      fill="black"></path>
                <path d="M115 87C115 87.5523 114.552 88 114 88C113.448 88 113 87.5523 113 87C113 86.4477 113.448 86 114 86C114.552 86 115 86.4477 115 87Z"
                      fill="black"></path>
                <path d="M115 69C115 69.5523 114.552 70 114 70C113.448 70 113 69.5523 113 69C113 68.4477 113.448 68 114 68C114.552 68 115 68.4477 115 69Z"
                      fill="black"></path>
                <path d="M122 71C122 71.5523 121.552 72 121 72C120.448 72 120 71.5523 120 71C120 70.4477 120.448 70 121 70C121.552 70 122 70.4477 122 71Z"
                      fill="black"></path>
                <path d="M137 62C137 62.5523 136.552 63 136 63C135.448 63 135 62.5523 135 62C135 61.4477 135.448 61 136 61C136.552 61 137 61.4477 137 62Z"
                      fill="black"></path>
                <path d="M31 109C31 109.552 30.5523 110 30 110C29.4477 110 29 109.552 29 109C29 108.448 29.4477 108 30 108C30.5523 108 31 108.448 31 109Z"
                      stroke="black"></path>
                <path d="M83 116C83 116.552 82.5523 117 82 117C81.4477 117 81 116.552 81 116C81 115.448 81.4477 115 82 115C82.5523 115 83 115.448 83 116Z"
                      stroke="black"></path>
                <path d="M79 123C79 123.552 78.5523 124 78 124C77.4477 124 77 123.552 77 123C77 122.448 77.4477 122 78 122C78.5523 122 79 122.448 79 123Z"
                      stroke="black"></path>
                <path d="M99 121C99 121.552 98.5523 122 98 122C97.4477 122 97 121.552 97 121C97 120.448 97.4477 120 98 120C98.5523 120 99 120.448 99 121Z"
                      stroke="black"></path>
                <path d="M100 111C100 111.552 99.5523 112 99 112C98.4477 112 98 111.552 98 111C98 110.448 98.4477 110 99 110C99.5523 110 100 110.448 100 111Z"
                      stroke="black"></path>
                <path d="M120 116C120 116.552 119.552 117 119 117C118.448 117 118 116.552 118 116C118 115.448 118.448 115 119 115C119.552 115 120 115.448 120 116Z"
                      stroke="black"></path>
                <path d="M130 102C130 102.552 129.552 103 129 103C128.448 103 128 102.552 128 102C128 101.448 128.448 101 129 101C129.552 101 130 101.448 130 102Z"
                      stroke="black"></path>
                <path d="M21 88C21 88.5523 20.5523 89 20 89C19.4477 89 19 88.5523 19 88C19 87.4477 19.4477 87 20 87C20.5523 87 21 87.4477 21 88Z"
                      stroke="black"></path>
                <path d="M54 104C54 104.552 53.5523 105 53 105C52.4477 105 52 104.552 52 104C52 103.448 52.4477 103 53 103C53.5523 103 54 103.448 54 104Z"
                      stroke="black"></path>
                <path d="M51 124C51 124.552 50.5523 125 50 125C49.4477 125 49 124.552 49 124C49 123.448 49.4477 123 50 123C50.5523 123 51 123.448 51 124Z"
                      stroke="black"></path>
                <path d="M69 128C69 128.552 68.5523 129 68 129C67.4477 129 67 128.552 67 128C67 127.448 67.4477 127 68 127C68.5523 127 69 127.448 69 128Z"
                      stroke="black"></path>
                <path d="M103 102C103 102.552 102.552 103 102 103C101.448 103 101 102.552 101 102C101 101.448 101.448 101 102 101C102.552 101 103 101.448 103 102Z"
                      stroke="black"></path>
                <path d="M117 106C117 106.552 116.552 107 116 107C115.448 107 115 106.552 115 106C115 105.448 115.448 105 116 105C116.552 105 117 105.448 117 106Z"
                      stroke="black"></path>
                <path d="M109 123C109 123.552 108.552 124 108 124C107.448 124 107 123.552 107 123C107 122.448 107.448 122 108 122C108.552 122 109 122.448 109 123Z"
                      stroke="black"></path>
                <path d="M123 92C123 92.5523 122.552 93 122 93C121.448 93 121 92.5523 121 92C121 91.4477 121.448 91 122 91C122.552 91 123 91.4477 123 92Z"
                      stroke="black"></path>
                <path d="M30 94C30 94.5523 29.5523 95 29 95C28.4477 95 28 94.5523 28 94C28 93.4477 28.4477 93 29 93C29.5523 93 30 93.4477 30 94Z"
                      stroke="black"></path>
                <path d="M54 94C54 94.5523 53.5523 95 53 95C52.4477 95 52 94.5523 52 94C52 93.4477 52.4477 93 53 93C53.5523 93 54 93.4477 54 94Z"
                      stroke="black"></path>
                <path d="M54 76C54 76.5523 53.5523 77 53 77C52.4477 77 52 76.5523 52 76C52 75.4477 52.4477 75 53 75C53.5523 75 54 75.4477 54 76Z"
                      stroke="black"></path>
                <path d="M58 130C58 130.552 57.5523 131 57 131C56.4477 131 56 130.552 56 130C56 129.448 56.4477 129 57 129C57.5523 129 58 129.448 58 130Z"
                      stroke="black"></path>
                <path d="M85 130C85 130.552 84.5523 131 84 131C83.4477 131 83 130.552 83 130C83 129.448 83.4477 129 84 129C84.5523 129 85 129.448 85 130Z"
                      stroke="black"></path>
                <path d="M96 130C96 130.552 95.5523 131 95 131C94.4477 131 94 130.552 94 130C94 129.448 94.4477 129 95 129C95.5523 129 96 129.448 96 130Z"
                      stroke="black"></path>
                <path d="M113 94C113 94.5523 112.552 95 112 95C111.448 95 111 94.5523 111 94C111 93.4477 111.448 93 112 93C112.552 93 113 93.4477 113 94Z"
                      stroke="black"></path>
                <path d="M113 76C113 76.5523 112.552 77 112 77C111.448 77 111 76.5523 111 76C111 75.4477 111.448 75 112 75C112.552 75 113 75.4477 113 76Z"
                      stroke="black"></path>
                <path d="M133 89C133 89.5523 132.552 90 132 90C131.448 90 131 89.5523 131 89C131 88.4477 131.448 88 132 88C132.552 88 133 88.4477 133 89Z"
                      stroke="black"></path>
                <path d="M33 81C33 81.5523 32.5523 82 32 82C31.4477 82 31 81.5523 31 81C31 80.4477 31.4477 80 32 80C32.5523 80 33 80.4477 33 81Z"
                      stroke="black"></path>
                <path d="M43 116C43 116.552 42.5523 117 42 117C41.4477 117 41 116.552 41 116C41 115.448 41.4477 115 42 115C42.5523 115 43 115.448 43 116Z"
                      stroke="black"></path>
                <path d="M39 123C39 123.552 38.5523 124 38 124C37.4477 124 37 123.552 37 123C37 122.448 37.4477 122 38 122C38.5523 122 39 122.448 39 123Z"
                      stroke="black"></path>
                <path d="M79 103C79 103.552 78.5523 104 78 104C77.4477 104 77 103.552 77 103C77 102.448 77.4477 102 78 102C78.5523 102 79 102.448 79 103Z"
                      stroke="black"></path>
                <path d="M91 105C91 105.552 90.5523 106 90 106C89.4477 106 89 105.552 89 105C89 104.448 89.4477 104 90 104C90.5523 104 91 104.448 91 105Z"
                      stroke="black"></path>
                <path d="M77 135C77 135.552 76.5523 136 76 136C75.4477 136 75 135.552 75 135C75 134.448 75.4477 134 76 134C76.5523 134 77 134.448 77 135Z"
                      stroke="black"></path>
                <path d="M100 84C100 84.5523 99.5523 85 99 85C98.4477 85 98 84.5523 98 84C98 83.4477 98.4477 83 99 83C99.5523 83 100 83.4477 100 84Z"
                      stroke="black"></path>
                <path d="M100 66C100 66.5523 99.5523 67 99 67C98.4477 67 98 66.5523 98 66C98 65.4477 98.4477 65 99 65C99.5523 65 100 65.4477 100 66Z"
                      stroke="black"></path>
                <path d="M124 81C124 81.5523 123.552 82 123 82C122.448 82 122 81.5523 122 81C122 80.4477 122.448 80 123 80C123.552 80 124 80.4477 124 81Z"
                      stroke="black"></path>
                <path d="M131 71C131 71.5523 130.552 72 130 72C129.448 72 129 71.5523 129 71C129 70.4477 129.448 70 130 70C130.552 70 131 70.4477 131 71Z"
                      stroke="black"></path>
                <path d="M42 90C42 90.5523 41.5523 91 41 91C40.4477 91 40 90.5523 40 90C40 89.4477 40.4477 89 41 89C41.5523 89 42 89.4477 42 90Z"
                      stroke="black"></path>
                <path d="M42 101C42 101.552 41.5523 102 41 102C40.4477 102 40 101.552 40 101C40 100.448 40.4477 100 41 100C41.5523 100 42 100.448 42 101Z"
                      stroke="black"></path>
                <path d="M63 86C63 86.5523 62.5523 87 62 87C61.4477 87 61 86.5523 61 86C61 85.4477 61.4477 85 62 85C62.5523 85 63 85.4477 63 86Z"
                      stroke="black"></path>
                <path d="M63 68C63 68.5523 62.5523 69 62 69C61.4477 69 61 68.5523 61 68C61 67.4477 61.4477 67 62 67C62.5523 67 63 67.4477 63 68Z"
                      stroke="black"></path>
                <path d="M75 82C75 82.5523 74.5523 83 74 83C73.4477 83 73 82.5523 73 82C73 81.4477 73.4477 81 74 81C74.5523 81 75 81.4477 75 82Z"
                      stroke="black"></path>
                <path d="M87 76C87 76.5523 86.5523 77 86 77C85.4477 77 85 76.5523 85 76C85 75.4477 85.4477 75 86 75C86.5523 75 87 75.4477 87 76Z"
                      stroke="black"></path>
                <path d="M100 76C100 76.5523 99.5523 77 99 77C98.4477 77 98 76.5523 98 76C98 75.4477 98.4477 75 99 75C99.5523 75 100 75.4477 100 76Z"
                      stroke="black"></path>
                <path d="M113 76C113 76.5523 112.552 77 112 77C111.448 77 111 76.5523 111 76C111 75.4477 111.448 75 112 75C112.552 75 113 75.4477 113 76Z"
                      stroke="black"></path>
                <path d="M139 76C139 76.5523 138.552 77 138 77C137.448 77 137 76.5523 137 76C137 75.4477 137.448 75 138 75C138.552 75 139 75.4477 139 76Z"
                      stroke="black"></path>
                <path d="M61 116C61 116.552 60.5523 117 60 117C59.4477 117 59 116.552 59 116C59 115.448 59.4477 115 60 115C60.5523 115 61 115.448 61 116Z"
                      stroke="black"></path>
                <path d="M72 110C72 110.552 71.5523 111 71 111C70.4477 111 70 110.552 70 110C70 109.448 70.4477 109 71 109C71.5523 109 72 109.448 72 110Z"
                      stroke="black"></path>
                <path d="M68 102C68 102.552 67.5523 103 67 103C66.4477 103 66 102.552 66 102C66 101.448 66.4477 101 67 101C67.5523 101 68 101.448 68 102Z"
                      stroke="black"></path>
                <path d="M92 93C92 93.5523 91.5523 94 91 94C90.4477 94 90 93.5523 90 93C90 92.4477 90.4477 92 91 92C91.5523 92 92 92.4477 92 93Z"
                      stroke="black"></path>
                <path d="M43 75C43 75.5523 42.5523 76 42 76C41.4477 76 41 75.5523 41 75C41 74.4477 41.4477 74 42 74C42.5523 74 43 74.4477 43 75Z"
                      stroke="black"></path>
                <path d="M80 91C80 91.5523 79.5523 92 79 92C78.4477 92 78 91.5523 78 91C78 90.4477 78.4477 90 79 90C79.5523 90 80 90.4477 80 91Z"
                      stroke="black"></path>
                <path d="M80 73C80 73.5523 79.5523 74 79 74C78.4477 74 78 73.5523 78 73C78 72.4477 78.4477 72 79 72C79.5523 72 80 72.4477 80 73Z"
                      stroke="black"></path>
                <path d="M115 87C115 87.5523 114.552 88 114 88C113.448 88 113 87.5523 113 87C113 86.4477 113.448 86 114 86C114.552 86 115 86.4477 115 87Z"
                      stroke="black"></path>
                <path d="M115 69C115 69.5523 114.552 70 114 70C113.448 70 113 69.5523 113 69C113 68.4477 113.448 68 114 68C114.552 68 115 68.4477 115 69Z"
                      stroke="black"></path>
                <path d="M122 71C122 71.5523 121.552 72 121 72C120.448 72 120 71.5523 120 71C120 70.4477 120.448 70 121 70C121.552 70 122 70.4477 122 71Z"
                      stroke="black"></path>
                <path d="M137 62C137 62.5523 136.552 63 136 63C135.448 63 135 62.5523 135 62C135 61.4477 135.448 61 136 61C136.552 61 137 61.4477 137 62Z"
                      stroke="black"></path>
            </g>

        </g>
        <g>

            <g transform="translate(75, 160)">
                <title>mouth - frown</title>
                <path d="M2 41C5.21065 33.0427 17.1069 16.2329 39.0069 12.6522C60.9069 9.07139 72.1273 21.1068 75 27.5721"
                      stroke="black" stroke-width="4"></path>
            </g>
        </g>
        <g>

            <g transform="translate(5, 130.5)">
                <title>ear - attached</title>
                <path d="M30.5 6.17556C28.17 5.40834 25.6547 5 23.08 5C12.5866 5 4.08007 11.5 5.08001 23.5C6.12162 36 13.5866 40.5 24.08 40.5C25.2476 40.5 26.3906 40.3975 27.5 40.2011C28.7105 39.9869 29.8811 39.6609 31 39.2347"
                      stroke="#000" stroke-width="8"></path>
                <path d="M31.5 39.0361C29.2204 39.9786 26.7127 40.5 24.08 40.5C13.5866 40.5 6.12162 36 5.08001 23.5C4.08007 11.5 12.5866 5 23.08 5C26.2175 5 29.2667 5.60635 32 6.72957L31.5 39.0361Z"
                      fill="#ffcebc"></path>
                <path d="M27.5 13.5004C23.5 11.6671 14.7 10.7004 11.5 21.5004" stroke="#000" stroke-width="4"></path>
                <path d="M17 14C19.1667 15.8333 23.3 21.5 22.5 29.5" stroke="#000" stroke-width="4"></path>
            </g>
        </g>
        <g>

            <g transform="translate(-43.5, 247)">
                <title>clothes - open</title>
                <path d="M276.366 90.8628H3.45626C3.49074 90.7926 3.52546 90.7219 3.5604 90.6507C8.10518 81.395 16.4899 64.319 27.4025 49.0413C33.5961 40.3702 40.5303 32.3872 47.9416 26.7719C55.3538 21.1558 63.0614 18.0405 70.8916 18.7256C85.946 20.0429 99.3549 28.2854 112.817 36.5604C114.092 37.3444 115.368 38.1288 116.646 38.9076C131.131 47.7349 146.005 55.9312 162.365 52.3445C167.899 51.1311 171.629 48.5345 173.976 45.1797C176.29 41.8727 177.122 38.0292 177.266 34.5166C177.41 30.9989 176.871 27.6738 176.311 25.2562C176.049 24.1257 175.779 23.1785 175.564 22.4839C179.189 18.8351 183.027 16.71 186.989 15.7533C191.284 14.7164 195.876 15.0158 200.707 16.4448C210.437 19.3229 220.847 26.6969 231.007 36.1789C249.621 53.5516 266.7 77.3231 276.366 90.8628Z"
                      fill="#C09FFF" stroke="black" stroke-width="4.27431"></path>
            </g>

        </g>
    </g>
</svg>