<svg style=" background:#FC909F ;" width="280" height="280" viewBox="0 0 400.0 400.0"
     preserveAspectRatio="xMidYMax meet" fill="none" xmlns="http://www.w3.org/2000/svg">
    <g transform="translate(100, 65)">
        <g>

            <g clip-path="url(#clip0)">
                <title>face - base</title>
                <path d="M154 319.5C139.6 299.5 128.333 260.834 127 241.5L58.5 212L30 319.5H154Z" fill="#ffcebc"
                      stroke="black" stroke-width="4"></path>
                <mask id="mask0" style="mask-type: alpha" maskUnits="userSpaceOnUse" x="30" y="212" width="124"
                      height="118">
                    <path d="M154 329.5C139.6 309.5 128.333 260.834 127 241.5L58.5 212L30 329.5H154Z"
                          fill="#ffcebc"></path>
                </mask>
                <g mask="url(#mask0)">
                    <g style="mix-blend-mode: multiply">
                        <ellipse cx="124" cy="210" rx="59" ry="54" fill="black"></ellipse>
                    </g>
                </g>
                <mask id="path-4-inside-1" fill="white">
                    <path fill-rule="evenodd" clip-rule="evenodd"
                          d="M183.886 150.917C183.859 150.801 183.831 150.685 183.803 150.569C183.776 150.454 183.748 150.338 183.719 150.222L167.323 81.7855C167.306 81.7177 167.29 81.6499 167.274 81.5821C167.258 81.5142 167.242 81.4465 167.225 81.3787L167.152 81.0752L167.151 81.0755C156.933 39.6308 115.156 14.1472 73.5821 24.1081C32.0078 34.0689 6.31547 75.7174 15.9883 117.293L15.9863 117.293L32.9776 188.211L32.9916 188.208C43.5944 229.112 85.0616 254.149 126.329 244.261C167.597 234.374 193.216 193.264 184.131 151.996L184.144 151.993L183.886 150.917Z"></path>
                </mask>
                <path fill-rule="evenodd" clip-rule="evenodd"
                      d="M183.886 150.917C183.859 150.801 183.831 150.685 183.803 150.569C183.776 150.454 183.748 150.338 183.719 150.222L167.323 81.7855C167.306 81.7177 167.29 81.6499 167.274 81.5821C167.258 81.5142 167.242 81.4465 167.225 81.3787L167.152 81.0752L167.151 81.0755C156.933 39.6308 115.156 14.1472 73.5821 24.1081C32.0078 34.0689 6.31547 75.7174 15.9883 117.293L15.9863 117.293L32.9776 188.211L32.9916 188.208C43.5944 229.112 85.0616 254.149 126.329 244.261C167.597 234.374 193.216 193.264 184.131 151.996L184.144 151.993L183.886 150.917Z"
                      fill="#ffcebc"></path>
                <path d="M183.886 150.917L179.992 151.831L179.994 151.84L179.996 151.849L183.886 150.917ZM183.719 150.222L179.83 151.154L179.832 151.163L179.834 151.172L183.719 150.222ZM167.323 81.7855L163.43 82.7076L163.433 82.7175L167.323 81.7855ZM167.274 81.5821L163.384 82.5141L163.384 82.5142L167.274 81.5821ZM167.225 81.3787L163.335 82.3108L163.338 82.321L167.225 81.3787ZM167.152 81.0752L171.042 80.1432L170.111 76.255L166.222 77.1849L167.152 81.0752ZM167.151 81.0755L163.267 82.0331L164.218 85.8897L168.081 84.9659L167.151 81.0755ZM73.5821 24.1081L72.6501 20.2182L73.5821 24.1081ZM15.9883 117.293L16.9223 121.182L20.7842 120.255L19.8842 116.386L15.9883 117.293ZM15.9863 117.293L15.0523 113.404L11.1649 114.337L12.0964 118.225L15.9863 117.293ZM32.9776 188.211L29.0877 189.143L30.0201 193.035L33.9113 192.101L32.9776 188.211ZM32.9916 188.208L36.8636 187.204L35.8779 183.401L32.058 184.318L32.9916 188.208ZM126.329 244.261L125.397 240.371H125.397L126.329 244.261ZM184.131 151.996L183.2 148.106L179.381 149.021L180.225 152.856L184.131 151.996ZM184.144 151.993L185.075 155.883L188.966 154.951L188.034 151.061L184.144 151.993ZM187.78 150.002C187.751 149.881 187.722 149.759 187.693 149.637L179.914 151.502C179.94 151.611 179.966 151.721 179.992 151.831L187.78 150.002ZM187.693 149.637C187.664 149.516 187.635 149.395 187.605 149.273L179.834 151.172C179.861 151.281 179.887 151.391 179.914 151.502L187.693 149.637ZM163.433 82.7175L179.83 151.154L187.609 149.29L171.212 80.8535L163.433 82.7175ZM171.215 80.8634C171.198 80.7928 171.181 80.7216 171.164 80.65L163.384 82.5142C163.4 82.5781 163.415 82.6425 163.43 82.7076L171.215 80.8634ZM171.164 80.65C171.147 80.579 171.13 80.5078 171.113 80.4364L163.338 82.321C163.353 82.3851 163.369 82.4494 163.384 82.5141L171.164 80.65ZM163.262 82.0072L163.335 82.3108L171.115 80.4467L171.042 80.1432L163.262 82.0072ZM168.081 84.9659L168.083 84.9655L166.222 77.1849L166.221 77.1852L168.081 84.9659ZM171.035 80.118C160.291 36.5398 116.364 9.74466 72.6501 20.2182L74.514 27.998C113.949 18.5498 153.575 42.7219 163.267 82.0331L171.035 80.118ZM72.6501 20.2182C28.936 30.6917 1.92157 74.4836 12.0923 118.199L19.8842 116.386C10.7094 76.9513 35.0796 37.4461 74.514 27.998L72.6501 20.2182ZM16.9204 121.183L16.9223 121.182L15.0542 113.403L15.0523 113.404L16.9204 121.183ZM36.8676 187.279L19.8763 116.361L12.0964 118.225L29.0877 189.143L36.8676 187.279ZM32.058 184.318L32.044 184.322L33.9113 192.101L33.9252 192.097L32.058 184.318ZM29.1195 189.211C40.2685 232.223 83.8693 258.548 127.261 248.151L125.397 240.371C86.2539 249.75 46.9204 226.002 36.8636 187.204L29.1195 189.211ZM127.261 248.151C170.653 237.755 197.591 194.53 188.038 151.136L180.225 152.856C188.842 191.999 164.541 230.993 125.397 240.371L127.261 248.151ZM183.212 148.103L183.2 148.106L185.063 155.886L185.075 155.883L183.212 148.103ZM179.996 151.849L180.254 152.925L188.034 151.061L187.776 149.985L179.996 151.849Z"
                      fill="black" mask="url(#path-4-inside-1)"></path>
            </g>
            <defs>
                <clipPath id="clip0">
                    <rect width="200" height="320" fill="white"></rect>
                </clipPath>
            </defs>
        </g>
        <g>

            <g transform="translate(60, 95)">
                <title>eyes - ellipse</title>
                <ellipse cx="16.5301" cy="29.4023" rx="9" ry="13.5" transform="rotate(-6.77646 16.5301 29.4023)"
                         fill="black"></ellipse>
                <ellipse cx="80.5312" cy="19.4021" rx="9" ry="13.5" transform="rotate(-6.27568 80.5312 19.4021)"
                         fill="black"></ellipse>
            </g>
        </g>
        <g>

            <g transform="translate(98, 123)">
                <title>nose - round</title>
                <path d="M12.307 12.3397C17.753 11.0993 26.6843 12.9603 24.7238 22.8833C22.9813 31.7023 13.6141 32.1857 11 29.7048"
                      stroke="black" stroke-width="4"></path>
            </g>
        </g>
        <g>

            <g transform="translate(30, 75)">
                <title>eyebrows - eyelashesup</title>
                <path d="M99 13.2143C104.667 10.5476 118 8.11427 126 19.7143" stroke="black" stroke-width="4"
                      stroke-linecap="round"></path>
                <path d="M23.5791 38.521C25.6497 32.6104 33.2612 21.3959 47.1418 23.8224" stroke="black"
                      stroke-width="4" stroke-linecap="round"></path>
                <path d="M26.0742 32.4578L19.9258 27.0312" stroke="black" stroke-width="4"
                      stroke-linecap="round"></path>
                <path d="M122.961 14.157L129.109 8.73047" stroke="black" stroke-width="4" stroke-linecap="round"></path>
                <path d="M32.5233 26.8142L28.4766 19.6816" stroke="black" stroke-width="4"
                      stroke-linecap="round"></path>
                <path d="M115.512 10.5135L119.559 3.38086" stroke="black" stroke-width="4"
                      stroke-linecap="round"></path>
                <path d="M40.5994 23.2005L38.3984 15.3008" stroke="black" stroke-width="4"
                      stroke-linecap="round"></path>
                <path d="M106.436 9.89973L108.637 2" stroke="black" stroke-width="4" stroke-linecap="round"></path>
            </g>
        </g>
        <g>

            <g transform="translate(-57, -13)">
                <title>tops - wave</title>
                <path d="M209.76 336.932C209.271 336.902 208.865 336.872 208.544 336.847C202.393 327.458 196.789 311.969 192.447 296.059C188.226 280.589 185.261 264.968 184.147 254.649C221.22 243.931 244.458 205.667 238.871 166.189C238.864 166.117 238.856 166.067 238.856 166.066C238.848 166.006 238.837 165.938 238.825 165.867C238.802 165.724 238.768 165.532 238.726 165.3C238.641 164.832 238.516 164.172 238.353 163.346C238.028 161.693 237.552 159.358 236.942 156.532C235.722 150.88 233.967 143.249 231.825 135.155C229.685 127.065 227.152 118.485 224.372 110.945C221.613 103.46 218.541 96.8015 215.264 92.7056L214.967 92.3351L214.532 92.1463C212.6 91.3081 210.593 90.3741 208.499 89.3991C198.568 84.775 186.659 79.2299 171.235 78.6199C152.46 77.8774 128.684 84.3957 96.5441 107.706L94.5214 109.173L96.467 110.74C112.393 123.574 115.836 140.598 115.1 155.048C114.539 166.077 111.551 175.459 109.865 180.149C108.704 178.452 107.964 176.319 107.408 173.814C107.023 172.083 106.743 170.258 106.449 168.347L106.403 168.045C106.096 166.051 105.769 163.97 105.292 161.961C104.341 157.95 102.732 153.941 99.1602 151.102C95.5807 148.257 90.3641 146.848 82.7671 147.272L80.5398 147.396L81.0046 149.578L92.3634 202.891L92.3824 202.98L92.41 203.068C96.4679 215.93 103.426 227.078 112.323 235.88C112.399 236.007 112.509 236.193 112.65 236.434C112.939 236.928 113.356 237.653 113.861 238.563C114.87 240.384 116.229 242.941 117.621 245.886C120.435 251.835 123.282 259.138 123.83 265.102C124.386 271.154 122.865 278.962 121.123 285.412C120.26 288.605 119.361 291.406 118.677 293.407C118.535 293.824 118.402 294.206 118.281 294.549C113.249 292.144 108.754 292.323 104.902 294.565C100.738 296.989 97.6892 301.625 95.4191 306.781C91.2706 316.202 89.2756 328.42 88.3551 336.002C63.4846 330.298 44.281 324.507 31.2149 320.107C24.5012 317.846 19.408 315.953 15.9993 314.627C14.2949 313.964 13.0117 313.443 12.1575 313.089C11.9454 313.002 11.7598 312.924 11.6007 312.857C11.4477 312.466 11.2377 311.916 10.9828 311.219C10.4158 309.667 9.62676 307.384 8.74853 304.479C6.99149 298.667 4.88057 290.38 3.4734 280.502C0.656265 260.725 0.676883 234.696 11.8698 209.384C13.679 205.292 15.94 201.089 18.3903 196.533C27.8582 178.931 40.1551 156.07 40.1551 114.084C40.1551 83.4931 55.0029 57.7305 76.8623 39.5692C98.7415 21.3915 127.56 10.9109 155.237 10.9109C170.368 10.9109 182.533 12.6444 192.311 18.5511C202.028 24.4212 209.679 34.5978 215.362 52.1322C215.94 53.9168 217.851 55.0074 219.719 54.4015C231.034 50.7304 248.191 54.4361 262.673 63.8904C277.091 73.3032 288.289 88.0455 288.289 105.814C288.289 121.24 285.647 131.664 283.071 141.815L283.071 141.815C279.952 154.104 276.94 165.974 279.065 185.313C279.774 191.762 281.216 196.336 283.231 200.128C285.213 203.859 287.712 206.747 290.345 209.792L290.405 209.861C296.679 217.113 299.534 223.079 300.455 228.327C301.375 233.562 300.412 238.31 298.623 243.237C297.723 245.712 296.629 248.197 295.47 250.815L295.37 251.04C294.249 253.573 293.074 256.225 292.019 259.016C289.836 264.787 288.133 271.223 288.302 278.851C288.446 285.326 289.594 289.764 291.311 293.122C293.008 296.442 295.199 298.565 297.111 300.417L297.162 300.466C298.905 302.155 300.355 303.577 301.428 305.57C302.387 307.351 303.098 309.702 303.217 313.232C279.208 327.511 255.445 333.413 237.601 335.734C228.565 336.91 221.057 337.166 215.818 337.129C213.199 337.11 211.149 337.019 209.76 336.932Z"
                      fill="#FD6F5D" stroke="black" stroke-width="3.82184"></path>
            </g>

        </g>
        <g>

            <g transform="translate(75, 165)">
                <title>mouth - nervous</title>
                <rect x="4.24805" y="17.4707" width="70" height="24" rx="4" transform="rotate(-4 4.24805 17.4707)"
                      fill="black"></rect>
                <path fill-rule="evenodd" clip-rule="evenodd"
                      d="M67.8211 13.0252L10.5039 17.0332L12.3439 24.0378C13.0765 26.8266 15.6892 28.6999 18.5656 28.4988C15.6892 28.6999 13.3627 30.9186 13.0253 33.7822L12.1781 40.9747L69.4952 36.9667L67.6552 29.9621C66.9226 27.1734 64.3099 25.3 61.4336 25.5012C64.3099 25.3 66.6365 23.0813 66.9738 20.2177L67.8211 13.0252Z"
                      fill="white"></path>
                <path d="M9.06711 15.8455C5.41077 15.5824 2.32285 18.6103 2.58059 22.2961L3.5994 36.8658C3.85714 40.5517 7.33642 43.1204 10.9206 42.351C17.8645 40.8603 31.142 38.2166 40.7373 37.5457C50.3326 36.8747 63.8488 37.6448 70.9326 38.1545C74.589 38.4176 77.6769 35.3897 77.4191 31.7039L76.4003 17.1342C76.1426 13.4483 72.6633 10.8796 69.0792 11.649C62.1352 13.1397 48.8578 15.7833 39.2624 16.4543C29.6671 17.1253 16.151 16.3552 9.06711 15.8455Z"
                      stroke="black" stroke-width="4"></path>
            </g>
        </g>
        <g>

            <g transform="translate(5, 130.5)">
                <title>ear - attached</title>
                <path d="M30.5 6.17556C28.17 5.40834 25.6547 5 23.08 5C12.5866 5 4.08007 11.5 5.08001 23.5C6.12162 36 13.5866 40.5 24.08 40.5C25.2476 40.5 26.3906 40.3975 27.5 40.2011C28.7105 39.9869 29.8811 39.6609 31 39.2347"
                      stroke="#000" stroke-width="8"></path>
                <path d="M31.5 39.0361C29.2204 39.9786 26.7127 40.5 24.08 40.5C13.5866 40.5 6.12162 36 5.08001 23.5C4.08007 11.5 12.5866 5 23.08 5C26.2175 5 29.2667 5.60635 32 6.72957L31.5 39.0361Z"
                      fill="#ffcebc"></path>
                <path d="M27.5 13.5004C23.5 11.6671 14.7 10.7004 11.5 21.5004" stroke="#000" stroke-width="4"></path>
                <path d="M17 14C19.1667 15.8333 23.3 21.5 22.5 29.5" stroke="#000" stroke-width="4"></path>
            </g>
        </g>
        <g>

            <g transform="translate(-43.5, 250)">
                <title>clothes - crew</title>
                <path d="M182.552 38.4488L182.692 38.4809L182.836 38.4927C228.961 42.2969 256.62 62.7848 276.694 90.9997H3.37453C19.6742 61.6579 42.8579 42.9816 80.4446 34.4117C96.4579 30.7606 115.113 28.9394 137 28.9395C146.456 28.9395 153.814 30.3819 160.796 32.2853C163.383 32.9904 165.983 33.7805 168.643 34.5887C173.045 35.9265 177.611 37.3141 182.552 38.4488Z"
                      fill="#FFEBA4" stroke="black" stroke-width="4"></path>
                <path d="M68.9305 36.5805L78.0837 16.9838C78.3023 16.5157 78.8456 16.293 79.3326 16.4654C117.259 29.8904 151.762 28.945 183.736 20.0444C184.139 19.9324 184.569 20.0806 184.815 20.4178L198.747 39.4703C199.13 39.994 198.935 40.7324 198.331 40.9696C164.724 54.166 101.663 51.9229 69.4152 37.9037C68.9036 37.6813 68.6945 37.0859 68.9305 36.5805Z"
                      fill="#E0DDFF" stroke="black" stroke-width="4"></path>
            </g>

        </g>
    </g>
</svg>